<svg width="219" height="202" viewBox="0 0 219 202" fill="none" xmlns="http://www.w3.org/2000/svg">
<g clip-path="url(#clip0_320_21264)">
<path d="M87.1664 195.903V199.046H74.5623C68.4722 199.046 64.5547 195.35 64.5547 189.826V173.252H68.2164V189.57C68.2164 193.438 70.7288 195.903 74.5623 195.903C78.3959 195.903 80.9083 193.438 80.9083 189.57V173.252H84.57V189.826C84.57 192.546 83.5887 194.585 82.3134 195.903H87.1664Z" fill="#8B85F9"/>
<path d="M86.7421 199.046V195.903L87.0819 195.861C88.487 195.689 89.0827 194.882 89.0827 193.224V180.986H92.6604V182.727C93.9395 181.283 95.8525 180.518 98.1969 180.518C102.882 180.518 105.906 183.577 105.906 188.378V193.22C105.906 194.878 106.502 195.686 107.907 195.857L108.247 195.899V199.042H107.777C104.031 199.042 102.324 196.749 102.324 193.22V188.629C102.324 185.528 100.282 183.741 97.4714 183.741C94.6612 183.741 92.6604 185.779 92.6604 188.629V193.22C92.6604 196.749 90.9575 199.042 87.2079 199.042H86.7383L86.7421 199.046Z" fill="#8B85F9"/>
<path d="M116.083 195.903V199.046H107.82V195.903H110.161V180.986H113.739V195.903H116.079H116.083Z" fill="#8B85F9"/>
<path d="M134.136 197.027V198.985H133.712C132.623 198.985 131.535 198.589 130.901 197.316C130.184 198.322 128.515 198.985 126.869 198.985H119.76V197.027H122.494C121.593 196.074 121.115 194.805 121.115 193.297C121.115 190.043 123.448 187.658 126.82 187.658C127.667 187.658 128.465 187.764 129.126 188.054V190.012C128.408 189.776 127.774 189.669 126.923 189.669C124.853 189.669 123.341 191.205 123.341 193.323C123.341 195.442 124.8 197.027 126.869 197.027C128.939 197.027 130.451 195.491 130.451 193.4V182.388H132.681V195.358C132.681 196.39 133.051 196.893 133.926 197L134.139 197.027H134.136Z" fill="#C0C0DD"/>
<path d="M133.871 198.985V197.027H136.628C135.7 196.048 135.223 194.779 135.223 193.323C135.223 190.016 137.636 187.658 140.977 187.658C141.695 187.658 142.355 187.764 142.966 188.001V190.012C142.329 189.776 141.615 189.669 141.03 189.669C138.881 189.669 137.449 191.152 137.449 193.323C137.449 195.495 138.907 197.027 141.03 197.027C143.153 197.027 144.558 195.571 144.558 193.373V187.734H146.788V194.828C146.788 196.204 147.159 196.893 148.033 197L148.247 197.027V198.985H147.823C146.418 198.985 145.437 198.376 145.013 197.316C144.322 198.269 142.653 198.985 141.034 198.985H133.871Z" fill="#C0C0DD"/>
<path d="M149.522 200.89V200.73C149.522 199.644 149.018 198.985 148.197 198.985V197.027C150.45 197 151.779 198.322 151.779 200.784V200.89C151.779 202.689 153.077 204.015 154.883 204.015C156.689 204.015 157.987 202.692 157.987 200.89V196.813C157.35 197.476 156.025 197.953 154.803 197.953C151.699 197.953 149.579 195.914 149.579 192.923V187.734H151.809V192.946C151.809 194.745 153.081 195.99 154.86 195.99C156.639 195.99 157.991 194.748 157.991 192.973V187.734H160.221V197.473C160.538 197.21 161.149 197.023 161.733 197.023V198.981C160.752 199.008 160.221 199.591 160.221 200.49V200.886C160.221 203.851 157.968 205.996 154.891 205.996C151.813 205.996 149.534 203.851 149.534 200.886L149.522 200.89Z" fill="#C0C0DD"/>
<path d="M172.943 197.027V198.985H161.672V197.027H167.957C169.389 197.027 169.839 196.444 169.839 195.705C169.839 194.965 169.201 194.249 166.498 193.826C163.581 193.377 162.546 192.131 162.546 190.492C162.546 188.667 163.768 187.448 166.128 187.448H171.221V189.407H166.101C165.2 189.407 164.776 189.803 164.776 190.492C164.776 191.235 165.334 191.712 168.09 192.215C170.981 192.744 172.122 194.04 172.122 195.628C172.122 196.158 172.042 196.608 171.859 197.031H172.947L172.943 197.027Z" fill="#C0C0DD"/>
<g opacity="0.99">
<path d="M117.014 174.018C112.485 174.25 112.29 174.444 112.05 178.963C111.817 174.444 111.622 174.25 107.094 174.01C111.622 173.778 111.817 173.583 112.057 169.064C112.29 173.583 112.485 173.778 117.014 174.018Z" fill="#8B85F9"/>
</g>
<path d="M23.7832 94.9096V94.2276C24.4132 93.0312 26.1391 94.1666 25.2074 95.1115C24.7034 95.622 24.207 95.3172 23.7832 94.9096Z" fill="#8B85F9"/>
<path d="M210.79 112.402C211.771 112.185 211.863 113.034 211.771 113.773C211.572 115.366 210.923 117.545 210.496 119.138C210.194 120.277 209.728 122.38 209.259 123.367C208.85 124.224 207.838 124.16 207.594 123.257C207.949 121.649 208.514 120.06 208.934 118.456C209.407 116.646 209.827 114.821 210.202 112.985C210.27 112.726 210.526 112.459 210.793 112.402H210.79Z" fill="#8B85F9"/>
<path d="M31.054 129.886C31.4511 129.456 32.1002 129.616 32.4133 130.081C33.0777 131.071 33.7879 133.27 34.3645 134.477C35.1586 136.139 36.0368 137.758 36.873 139.396C37.2167 140.326 36.2239 140.844 35.4794 140.295C34.4255 138.364 33.3908 136.413 32.4744 134.413C32.1995 133.814 30.7944 130.785 30.8287 130.404C30.8402 130.286 30.9738 129.978 31.054 129.886Z" fill="#8B85F9"/>
<path d="M208.93 67.595C209.384 67.4997 209.698 67.7855 209.885 68.1627C210.488 69.3628 211.129 72.75 211.45 74.2131C211.771 75.6762 212.023 77.0364 212.275 78.4576C212.092 79.3872 211.007 79.5549 210.618 78.6557C210.034 75.1656 209.083 71.748 208.27 68.3189C208.304 68.0293 208.636 67.6559 208.926 67.595H208.93Z" fill="#8B85F9"/>
<path d="M26.2603 73.5654C26.8254 73.0434 27.7304 73.4968 27.6922 74.2512C27.2531 76.2363 26.8636 78.2289 26.5429 80.2369C26.3329 81.5475 26.2832 83.2545 25.9969 84.4737C25.8556 85.0605 25.1836 85.3691 24.6719 84.9995C24.2825 84.7175 24.355 84.0736 24.3779 83.6355C24.4772 81.8142 24.9507 79.4406 25.2867 77.6117C25.4089 76.9488 25.9396 73.8626 26.2642 73.5616L26.2603 73.5654Z" fill="#8B85F9"/>
<path d="M200.81 139.248C201.589 139.015 202.173 139.671 201.891 140.421C201.49 141.484 200.161 143.439 199.512 144.49C198.668 145.858 197.492 147.893 196.48 149.078C195.667 150.03 194.651 149.44 194.953 148.331C196.045 146.742 197.125 145.15 198.145 143.511C198.874 142.345 199.603 140.73 200.371 139.678C200.47 139.545 200.661 139.29 200.814 139.244L200.81 139.248Z" fill="#8B85F9"/>
<path d="M152.871 6.30952C153.222 6.28666 154.444 6.85056 154.86 7.01439C155.868 7.41445 156.876 7.86405 157.865 8.31364C159.133 8.88896 161.684 9.94055 162.726 10.6873C163.512 11.2512 162.982 12.5124 162.004 12.1885C160.221 11.2817 158.423 10.4016 156.594 9.5824C155.479 9.07947 153.512 8.50033 152.581 7.92501C151.798 7.44112 152.061 6.36287 152.875 6.30952H152.871Z" fill="#8B85F9"/>
<path d="M177.53 20.6469C177.927 20.5631 178.129 20.7841 178.427 20.9822C180.027 22.0452 182.33 24.2398 183.769 25.6077C184.185 26.0039 185.865 27.5623 186.052 27.9166C186.438 28.6558 185.846 29.2844 185.06 29.1053C184.739 29.033 182.173 26.4116 181.665 25.9506C180.191 24.6209 178.649 23.3559 177.11 22.1024C176.617 21.6414 176.892 20.7841 177.53 20.6507V20.6469Z" fill="#8B85F9"/>
<path d="M78.9303 8.64131C79.8467 8.52319 80.24 9.73861 79.377 10.2682C78.2201 10.9807 76.4981 11.6094 75.2304 12.2799C73.5618 13.1639 71.9314 14.124 70.2972 15.0689C69.3503 15.4004 68.7012 14.265 69.5641 13.5563C70.427 12.8477 72.7333 11.7084 73.8597 11.1064C74.7417 10.6378 75.6695 10.1425 76.5668 9.70813C77.0059 9.49477 78.5828 8.68322 78.9265 8.63749L78.9303 8.64131Z" fill="#8B85F9"/>
<path d="M196.8 41.732C197.25 41.6329 197.472 41.793 197.746 42.1092C198.877 43.4046 200.45 46.3117 201.343 47.8929C201.71 48.5445 202.951 50.5791 203.065 51.1544C203.256 52.0993 202.187 52.507 201.572 51.8593C199.969 48.8074 198.243 45.8202 196.292 42.9779C196.12 42.5131 196.261 41.8501 196.8 41.732Z" fill="#8B85F9"/>
<path d="M24.8364 101.859C25.4969 101.752 25.7413 102.339 25.8291 102.876C26.3484 106.1 26.3866 109.521 27.2113 112.729C27.3679 113.72 25.9322 114.029 25.5924 113.164C25.2525 112.299 25.0311 110.188 24.8784 109.194C24.5424 107.029 24.3285 104.842 24.0918 102.667C24.1453 102.294 24.4584 101.92 24.8364 101.859Z" fill="#8B85F9"/>
<path d="M106.127 0.746779C107.467 0.647716 107.849 1.72597 106.757 2.35083C104.81 2.61754 102.87 2.92235 100.942 3.2843C99.6818 3.52053 97.7651 4.15682 96.6043 4.22921C95.5199 4.29779 95.1954 3.00998 96.2416 2.59468C97.4176 2.12984 99.8995 1.7717 101.236 1.52785C102.767 1.2459 104.596 0.857272 106.127 0.746779Z" fill="#8B85F9"/>
<path d="M46.357 154.08C46.8419 153.989 47.0595 154.294 47.3612 154.595C48.6059 155.852 49.782 157.433 51.0267 158.748C52.0538 159.834 53.1688 160.843 54.2111 161.914C54.6121 162.783 53.856 163.648 52.9817 163.042C50.8816 160.939 48.7396 158.866 46.819 156.599C46.5441 156.275 45.7499 155.422 45.7002 155.079C45.6239 154.572 45.8453 154.179 46.357 154.08Z" fill="#8B85F9"/>
<path d="M124.375 1.56214C123.951 1.17351 124.104 0.285758 124.707 0.148594C124.978 0.0876328 125.375 0.118114 125.662 0.129544C128.125 0.209556 132.89 0.689628 135.223 1.32591C135.822 1.48975 136.162 1.91648 135.91 2.54134C135.719 3.01379 135.292 2.9795 134.856 2.96045C133.314 2.89568 131.282 2.38131 129.663 2.187C128.136 2.00411 126.353 2.02697 124.887 1.77932C124.745 1.75646 124.474 1.64977 124.375 1.55833V1.56214Z" fill="#8B85F9"/>
<path d="M54.9602 24.5523C55.8269 24.3541 56.3958 25.12 55.8689 25.8515C54.3302 27.3413 52.757 28.7967 51.2679 30.3398C50.4623 31.178 49.5535 32.4468 48.7326 33.1783C47.7704 34.0356 46.686 32.9955 47.6024 31.8562C49.1984 29.8712 51.7643 27.3375 53.6658 25.6077C53.8872 25.4057 54.7616 24.6018 54.9602 24.5561V24.5523Z" fill="#8B85F9"/>
<path d="M36.961 46.8109C37.8353 46.5518 38.2324 47.2376 37.9881 48.0301C37.7246 48.895 36.3615 50.8915 35.8613 51.8631C34.9449 53.6424 34.1278 55.4674 33.2572 57.2696C32.9289 57.7001 32.0889 57.6011 31.8788 57.1134C31.6498 56.5876 31.9781 56.0808 32.1805 55.6084C33.0663 53.5128 34.2958 51.162 35.4107 49.1655C35.6551 48.7274 36.5829 46.9252 36.9648 46.8109H36.961Z" fill="#8B85F9"/>
<path d="M211.962 83.9022C212.573 83.7231 213.042 84.0089 213.157 84.6185C213.504 86.4664 213.485 88.9506 213.554 90.8594C213.604 92.1511 213.806 93.6675 213.653 94.9629C213.531 96.0107 212.122 95.9954 211.985 94.8638C211.866 93.8694 212.034 92.5854 211.992 91.5376C211.901 89.2249 211.63 86.916 211.492 84.6032C211.431 84.3556 211.74 83.9631 211.958 83.8984L211.962 83.9022Z" fill="#8B85F9"/>
<path d="M28.9923 67.1263C29.4583 67.1263 29.8361 66.7493 29.8361 66.2843C29.8361 65.8192 29.4583 65.4423 28.9923 65.4423C28.5262 65.4423 28.1484 65.8192 28.1484 66.2843C28.1484 66.7493 28.5262 67.1263 28.9923 67.1263Z" fill="#8B85F9"/>
<path d="M28.9005 123.611C29.3665 123.611 29.7443 123.234 29.7443 122.769C29.7443 122.304 29.3665 121.927 28.9005 121.927C28.4344 121.927 28.0566 122.304 28.0566 122.769C28.0566 123.234 28.4344 123.611 28.9005 123.611Z" fill="#8B85F9"/>
<path d="M205.594 131.65C206.06 131.65 206.438 131.273 206.438 130.808C206.438 130.343 206.06 129.966 205.594 129.966C205.128 129.966 204.75 130.343 204.75 130.808C204.75 131.273 205.128 131.65 205.594 131.65Z" fill="#8B85F9"/>
<path d="M61.5118 20.9251C61.9778 20.9251 62.3556 20.5481 62.3556 20.083C62.3556 19.618 61.9778 19.241 61.5118 19.241C61.0458 19.241 60.668 19.618 60.668 20.083C60.668 20.5481 61.0458 20.9251 61.5118 20.9251Z" fill="#8B85F9"/>
<path d="M169.369 16.3529C169.835 16.3529 170.213 15.976 170.213 15.5109C170.213 15.0459 169.835 14.6689 169.369 14.6689C168.903 14.6689 168.525 15.0459 168.525 15.5109C168.525 15.976 168.903 16.3529 169.369 16.3529Z" fill="#8B85F9"/>
<path d="M114.715 1.68406C115.181 1.68406 115.559 1.30707 115.559 0.842032C115.559 0.37699 115.181 0 114.715 0C114.249 0 113.871 0.37699 113.871 0.842032C113.871 1.30707 114.249 1.68406 114.715 1.68406Z" fill="#8B85F9"/>
<path d="M205.703 59.6128C206.169 59.6128 206.547 59.2358 206.547 58.7708C206.547 58.3057 206.169 57.9287 205.703 57.9287C205.237 57.9287 204.859 58.3057 204.859 58.7708C204.859 59.2358 205.237 59.6128 205.703 59.6128Z" fill="#8B85F9"/>
<path d="M41.5275 149.253C41.9914 149.253 42.3675 148.878 42.3675 148.415C42.3675 147.952 41.9914 147.577 41.5275 147.577C41.0636 147.577 40.6875 147.952 40.6875 148.415C40.6875 148.878 41.0636 149.253 41.5275 149.253Z" fill="#8B85F9"/>
<path d="M190.889 35.2015C191.355 35.2015 191.733 34.8245 191.733 34.3595C191.733 33.8944 191.355 33.5174 190.889 33.5174C190.423 33.5174 190.045 33.8944 190.045 34.3595C190.045 34.8245 190.423 35.2015 190.889 35.2015Z" fill="#8B85F9"/>
<path d="M190.684 156.031C191.148 156.031 191.524 155.656 191.524 155.193C191.524 154.73 191.148 154.355 190.684 154.355C190.22 154.355 189.844 154.73 189.844 155.193C189.844 155.656 190.22 156.031 190.684 156.031Z" fill="#8B85F9"/>
<path d="M212.467 103.905C212.931 103.905 213.307 103.53 213.307 103.067C213.307 102.604 212.931 102.229 212.467 102.229C212.003 102.229 211.627 102.604 211.627 103.067C211.627 103.53 212.003 103.905 212.467 103.905Z" fill="#8B85F9"/>
<path d="M41.7053 41.5263C42.1692 41.5263 42.5453 41.151 42.5453 40.688C42.5453 40.2251 42.1692 39.8498 41.7053 39.8498C41.2413 39.8498 40.8652 40.2251 40.8652 40.688C40.8652 41.151 41.2413 41.5263 41.7053 41.5263Z" fill="#8B85F9"/>
<path d="M86.631 7.19346C87.095 7.19346 87.471 6.81818 87.471 6.35524C87.471 5.89231 87.095 5.51702 86.631 5.51702C86.1671 5.51702 85.791 5.89231 85.791 6.35524C85.791 6.81818 86.1671 7.19346 86.631 7.19346Z" fill="#8B85F9"/>
<path d="M143.172 4.79691C143.636 4.79691 144.012 4.42163 144.012 3.95869C144.012 3.49575 143.636 3.12047 143.172 3.12047C142.708 3.12047 142.332 3.49575 142.332 3.95869C142.332 4.42163 142.708 4.79691 143.172 4.79691Z" fill="#8B85F9"/>
<path d="M108.618 16.5358C123.169 14.8594 147.323 18.8295 160.664 37.198C125.792 22.5558 92.8635 44.7115 83.0735 68.6503C73.6958 91.5795 80.6412 113.644 93.5126 129.524C102.928 141.145 112.081 143.081 112.081 143.081C99.5149 150.834 83.6042 163.842 49.679 165.838C16.1012 167.812 2.70677 157.3 0.610544 149.573C-3.62009 133.971 15.2574 115.591 28.9344 108.458C24.8947 112.07 20.7175 116.635 18.0371 121.455C13.2375 130.077 12.787 137.106 23.1192 140.055C33.3941 142.985 43.6347 142.147 53.188 137.872C31.9775 107.673 37.9607 79.8597 46.0745 62.539C57.4033 38.3525 79.7172 19.862 108.625 16.532L108.618 16.5358Z" fill="#574AD3"/>
<path opacity="0.99" d="M145.509 121.554C153.02 121.554 159.109 115.477 159.109 107.982C159.109 100.487 153.02 94.4104 145.509 94.4104C137.997 94.4104 131.908 100.487 131.908 107.982C131.908 115.477 137.997 121.554 145.509 121.554Z" fill="#8B85F9"/>
<path opacity="0.99" d="M145.908 81.2846C149.294 81.2846 152.04 78.5451 152.04 75.1656C152.04 71.7862 149.294 69.0466 145.908 69.0466C142.521 69.0466 139.775 71.7862 139.775 75.1656C139.775 78.5451 142.521 81.2846 145.908 81.2846Z" fill="#8B85F9"/>
<g opacity="0.99">
<path d="M134.998 84.3137C113.819 85.7501 112.929 86.6683 112.142 107.833C110.703 86.6988 109.783 85.8111 88.5723 85.0262C109.752 83.5898 110.642 82.6715 111.428 61.5064C112.868 82.641 113.788 83.5288 134.998 84.3137Z" fill="#8B85F9"/>
</g>
<path d="M195.475 56.2409C195.036 49.7256 182.646 49.5465 177.17 49.9085C173.913 50.1257 170.737 50.3162 167.461 51.3487C178.091 44.0409 191.558 39.6136 204.44 42.8522C233.662 50.2019 209.985 85.7615 209.335 86.8283C207.495 89.8536 197.094 103.056 197.094 103.056C197.094 103.056 197.575 114.352 195.796 120.757C188.625 146.601 163.02 158.439 148.663 159.952C138.266 161.049 124.463 159.651 114.814 157.113C122.718 157.087 141.657 158.142 155.88 146.094C167.682 136.093 171.978 125.829 173.734 117.233C173.734 117.233 176.105 107.132 173.409 95.6373C173.409 95.6373 180.217 88.7143 190.557 72.289C190.557 72.289 196.021 64.3183 195.479 56.2409H195.475Z" fill="#B7B7F9"/>
</g>
<defs>
<clipPath id="clip0_320_21264">
<rect width="219" height="202" fill="white"/>
</clipPath>
</defs>
</svg>
