<svg width="29" height="29" viewBox="0 0 29 29" fill="none" xmlns="http://www.w3.org/2000/svg">
<path d="M14.5 19.0312C16.502 19.0312 18.125 17.4083 18.125 15.4062C18.125 13.4042 16.502 11.7812 14.5 11.7812C12.498 11.7812 10.875 13.4042 10.875 15.4062C10.875 17.4083 12.498 19.0312 14.5 19.0312Z" fill="white"/>
<path d="M24.4688 8.15625H21.127C20.957 8.15625 20.7463 8.04637 20.5821 7.87305L19.1128 5.55418C19.0896 5.51738 19.0636 5.48235 19.0352 5.44939C18.5277 4.8575 17.8418 4.53125 17.1055 4.53125H11.8945C11.1582 4.53125 10.4723 4.8575 9.96478 5.44939C9.93636 5.48235 9.91042 5.51738 9.88719 5.55418L8.41793 7.87645C8.29219 8.01352 8.11547 8.15965 7.92969 8.15965V7.70652C7.92969 7.46617 7.83421 7.23566 7.66425 7.06571C7.4943 6.89575 7.26379 6.80027 7.02344 6.80027H5.66406C5.42371 6.80027 5.1932 6.89575 5.02325 7.06571C4.85329 7.23566 4.75781 7.46617 4.75781 7.70652V8.15965H4.53125C3.81042 8.1604 3.11933 8.44708 2.60963 8.95678C2.09993 9.46648 1.81325 10.1576 1.8125 10.8784V21.75C1.81325 22.4708 2.09993 23.1619 2.60963 23.6716C3.11933 24.1813 3.81042 24.468 4.53125 24.4688H24.4688C25.1896 24.468 25.8807 24.1813 26.3904 23.6716C26.9001 23.1619 27.1868 22.4708 27.1875 21.75V10.875C27.1868 10.1542 26.9001 9.46308 26.3904 8.95338C25.8807 8.44368 25.1896 8.157 24.4688 8.15625ZM14.5 20.8438C13.4246 20.8438 12.3733 20.5248 11.4791 19.9274C10.5849 19.3299 9.88796 18.4807 9.47641 17.4871C9.06485 16.4935 8.95717 15.4002 9.16698 14.3454C9.37679 13.2907 9.89466 12.3218 10.6551 11.5614C11.4156 10.8009 12.3844 10.283 13.4392 10.0732C14.494 9.86342 15.5873 9.9711 16.5808 10.3827C17.5744 10.7942 18.4236 11.4911 19.0211 12.3853C19.6186 13.2795 19.9375 14.3308 19.9375 15.4062C19.9359 16.8479 19.3624 18.2299 18.3431 19.2493C17.3237 20.2687 15.9416 20.8421 14.5 20.8438Z" fill="white"/>
</svg>
