<svg width="29" height="29" viewBox="0 0 29 29" fill="none" xmlns="http://www.w3.org/2000/svg">
<path d="M16.0999 10.1937L11.4731 14.7297C11.0333 15.1647 10.7916 15.7592 10.8013 16.384C10.8145 17.0159 11.0748 17.6176 11.5263 18.0599C11.9794 18.5082 12.5896 18.7656 13.2216 18.7765C13.531 18.783 13.8385 18.7275 14.1261 18.6134C14.4137 18.4993 14.6756 18.3287 14.8964 18.1119L19.5219 13.5758C19.9582 13.1441 20.3023 12.6282 20.5333 12.0595C20.7643 11.4908 20.8773 10.8811 20.8655 10.2674C20.8401 9.00336 20.3204 7.79961 19.4179 6.91425C18.5129 6.0187 17.2979 5.50594 16.0249 5.48237C15.4069 5.47004 14.7925 5.58101 14.2178 5.80881C13.6431 6.03662 13.1196 6.37668 12.6778 6.80912L8.04872 11.3464C7.39466 11.9943 6.87889 12.7681 6.53266 13.6212C6.18643 14.4742 6.01693 15.3886 6.03443 16.309C6.07334 18.2046 6.85326 20.0095 8.20702 21.3369C9.56381 22.6799 11.3854 23.4492 13.2941 23.4853C14.2216 23.5047 15.1436 23.3387 16.0061 22.9972C16.8686 22.6556 17.6543 22.1454 18.3171 21.4964L22.9439 16.9579" stroke="white" stroke-width="2" stroke-linecap="round" stroke-linejoin="round"/>
</svg>
