<svg width="82" height="28" viewBox="0 0 82 28" fill="none" xmlns="http://www.w3.org/2000/svg">
<path d="M17.0274 20.3464V22.7293H7.5361C2.95003 22.7293 0 19.9276 0 15.7394V3.1748H2.75739V15.5459C2.75739 18.4776 4.64932 20.3464 7.5361 20.3464C10.4229 20.3464 12.3148 18.4776 12.3148 15.5459V3.1748H15.0722V15.7394C15.0722 17.8017 14.3333 19.347 13.3729 20.3464H17.0274Z" fill="white"/>
<path d="M16.706 22.7316V20.3487L16.9619 20.3169C18.02 20.187 18.4685 19.5746 18.4685 18.3182V9.04057H21.1627V10.3606C22.1259 9.26587 23.5664 8.6853 25.3318 8.6853C28.8598 8.6853 31.137 11.0047 31.137 14.6441V18.3153C31.137 19.5717 31.5856 20.1841 32.6437 20.314L32.8996 20.3458V22.7288H32.5459C29.7253 22.7288 28.44 20.9899 28.44 18.3153V14.8347C28.44 12.4836 26.9017 11.1289 24.7855 11.1289C22.6693 11.1289 21.1627 12.6742 21.1627 14.8347V18.3153C21.1627 20.9899 19.8803 22.7288 17.0568 22.7288H16.7031L16.706 22.7316Z" fill="white"/>
<path d="M38.8002 20.345V22.7279H32.5781V20.345H34.3407V9.03687H37.0348V20.345H38.7974H38.8002Z" fill="white"/>
<path d="M52.3977 21.1986V22.6832H52.0785C51.2591 22.6832 50.4396 22.3828 49.9623 21.4181C49.4218 22.1806 48.1653 22.6832 46.926 22.6832H41.5723V21.1986H43.631C42.9524 20.4765 42.593 19.5146 42.593 18.3708C42.593 15.9041 44.3498 14.096 46.8887 14.096C47.527 14.096 48.1279 14.1769 48.6253 14.3964V15.881C48.0848 15.7019 47.6075 15.6211 46.9663 15.6211C45.4079 15.6211 44.2693 16.7851 44.2693 18.3911C44.2693 19.997 45.3676 21.1986 46.926 21.1986C48.4844 21.1986 49.623 20.0346 49.623 18.4488V10.1013H51.3022V19.9335C51.3022 20.7162 51.5811 21.0975 52.2395 21.1784L52.4006 21.1986H52.3977Z" fill="white"/>
<path d="M52.2012 22.6858V21.2011H54.2771C53.5784 20.4588 53.219 19.4969 53.219 18.3936C53.219 15.8864 55.0362 14.0985 57.5521 14.0985C58.0926 14.0985 58.59 14.1794 59.0501 14.3585V15.8835C58.5699 15.7045 58.0322 15.6236 57.5923 15.6236C55.9735 15.6236 54.8953 16.7472 54.8953 18.3936C54.8953 20.04 55.9937 21.2011 57.5923 21.2011C59.191 21.2011 60.2491 20.0977 60.2491 18.4311V14.1563H61.9282V19.5345C61.9282 20.5772 62.2071 21.1 62.8656 21.1809L63.0266 21.2011V22.6858H62.7074C61.6493 22.6858 60.9104 22.2236 60.5912 21.4206C60.0708 22.1427 58.8143 22.6858 57.5952 22.6858H52.2012Z" fill="white"/>
<path d="M63.9801 24.1296V24.0083C63.9801 23.1851 63.6006 22.6854 62.9824 22.6854V21.2007C64.6788 21.1805 65.6794 22.1828 65.6794 24.0487V24.1296C65.6794 25.4929 66.657 26.4981 68.017 26.4981C69.377 26.4981 70.3546 25.4958 70.3546 24.1296V21.039C69.8745 21.5415 68.8767 21.9026 67.9566 21.9026C65.619 21.9026 64.0233 20.3573 64.0233 18.0899V14.1559H65.7024V18.1072C65.7024 19.4706 66.6599 20.4151 67.9998 20.4151C69.3397 20.4151 70.3575 19.4734 70.3575 18.1274V14.1559H72.0367V21.5387C72.2753 21.3394 72.7354 21.1978 73.1753 21.1978V22.6825C72.4363 22.7027 72.0367 23.1446 72.0367 23.8263V24.1267C72.0367 26.3739 70.3403 28 68.0228 28C65.7053 28 63.9888 26.3739 63.9888 24.1267L63.9801 24.1296Z" fill="white"/>
<path d="M81.6167 21.1986V22.6832H73.1289V21.1986H77.8616C78.9398 21.1986 79.2791 20.7567 79.2791 20.1963C79.2791 19.636 78.799 19.0929 76.7633 18.7723C74.5665 18.4315 73.7873 17.487 73.7873 16.245C73.7873 14.8614 74.7074 13.9371 76.4844 13.9371H80.32V15.4218H76.4642C75.7857 15.4218 75.4665 15.7222 75.4665 16.245C75.4665 16.8082 75.8863 17.1693 77.9622 17.5505C80.1388 17.952 80.9985 18.9341 80.9985 20.1386C80.9985 20.54 80.9382 20.8809 80.8001 21.2015H81.6196L81.6167 21.1986Z" fill="white"/>
<g opacity="0.99">
<path d="M39.5051 3.75493C36.095 3.93113 35.9484 4.07843 35.7673 7.50409C35.5919 4.07843 35.4452 3.93112 32.0352 3.74915C35.4452 3.57296 35.5919 3.42565 35.773 0C35.9484 3.42565 36.095 3.57296 39.5051 3.75493Z" fill="white"/>
</g>
</svg>
