<svg width="17" height="24" viewBox="0 0 17 24" fill="none" xmlns="http://www.w3.org/2000/svg">
<path d="M1 4.92194C1 3.54892 1 2.86241 1.26725 2.33772C1.50231 1.8764 1.87738 1.50133 2.3387 1.26627C2.86339 0.999023 3.5499 0.999023 4.92292 0.999023H11.788C13.161 0.999023 13.8476 0.999023 14.3722 1.26627C14.8336 1.50133 15.2086 1.8764 15.4437 2.33772C15.7109 2.86241 15.7109 3.54892 15.7109 4.92194V21.2327C15.7109 21.8285 15.7109 22.1264 15.5871 22.2894C15.5336 22.3603 15.4653 22.4188 15.387 22.4607C15.3087 22.5026 15.2222 22.527 15.1335 22.5322C14.9288 22.5444 14.6812 22.3789 14.1859 22.0491L8.35547 18.1618L2.52503 22.0479C2.02977 22.3789 1.78213 22.5444 1.57618 22.5322C1.48771 22.5268 1.40146 22.5023 1.32336 22.4604C1.24527 22.4185 1.17719 22.3602 1.12382 22.2894C1 22.1264 1 21.8285 1 21.2327V4.92194Z" fill="#B7B7F9" stroke="#B7B7F9" stroke-linecap="round" stroke-linejoin="round"/>
<path fill-rule="evenodd" clip-rule="evenodd" d="M6.34806 12.2971L8.34853 16.833L10.349 12.2971L14.8867 10.2966L10.349 8.29613L8.34853 3.7578L6.34806 8.29613L1.81033 10.2966L6.34806 12.2971Z" fill="white"/>
</svg>
